<?xml version="1.0" encoding="utf-8"?>
<!-- Generator: Adobe Illustrator 25.2.3, SVG Export Plug-In . SVG Version: 6.00 Build 0)  -->
<svg version="1.1" id="Capa_1" xmlns="http://www.w3.org/2000/svg" xmlns:xlink="http://www.w3.org/1999/xlink" x="0px" y="0px"
	 viewBox="0 0 414.1 414.1" style="enable-background:new 0 0 414.1 414.1;" xml:space="preserve">
<style type="text/css">
	.st0{fill:#FFFFFF;}
</style>
<g>
	<g>
		<path class="st0" d="M272,223.7l41.4,8.2c0.4,20.3,17.2,36.4,37.6,36s36.4-17.2,36-37.6c-0.4-20.3-17.2-36.4-37.6-36
			c-14.3,0.3-27.1,8.8-32.9,21.9l-42.5-8.4c0-15.5-6.1-30.5-16.9-41.7l55-77.7c23.2,11,50.9,1.2,62-22c11-23.2,1.2-50.9-22-62
			s-50.9-1.2-62,22c-8.4,17.7-4.8,38.8,9,52.7l-54.5,76.9c-25-15-57.3-10-76.5,12l-71.5-55.5C106.1,94.6,99,72.3,81,63
			s-40.3-2.3-49.7,15.7S28.9,119,47,128.4c12.7,6.6,28.1,5.2,39.4-3.4l72.9,56.6c-12.1,24.7-5.9,54.5,15,72.4L130,316.6
			c-23.4-14.2-54-6.8-68.2,16.7c-14.2,23.4-6.8,54,16.7,68.2c23.4,14.2,54,6.8,68.2-16.7c11.1-18.2,9.3-41.5-4.5-57.8l45.5-64.3
			c15.6,7.4,33.5,7.8,49.4,1.1l54,79.7c-15.9,16.8-15.1,43.2,1.6,59.1s43.2,15.1,59.1-1.6s15.1-43.2-1.6-59.1
			c-12.4-11.7-30.6-14.7-46.1-7.7l-53.2-78.6C261.2,247.6,268.6,236.4,272,223.7z"/>
	</g>
</g>
</svg>
